<svg id="Capa_1" data-name="Capa 1" xmlns="http://www.w3.org/2000/svg" xmlns:xlink="http://www.w3.org/1999/xlink" viewBox="0 0 288.38 53"><defs><style>.cls-1{fill:none;}.cls-2{opacity:0.25;}.cls-3{fill:url(#Degradado_sin_nombre);}.cls-4{fill:#fdfffe;}.cls-5{fill:#fff;}</style><linearGradient id="Degradado_sin_nombre" x1="25.59" y1="53.92" x2="27.41" y2="0.92" gradientTransform="matrix(1, 0, 0, -1, 0, 53.89)" gradientUnits="userSpaceOnUse"><stop offset="0" stop-color="#656565"/><stop offset="1" stop-color="#1a1a1a"/></linearGradient></defs><rect class="cls-1" width="53" height="53" rx="10"/><g class="cls-2"><path class="cls-3" d="M43,53H10A10,10,0,0,1,0,43V10A10,10,0,0,1,10,0H43A10,10,0,0,1,53,10V43A10,10,0,0,1,43,53ZM10,1a9,9,0,0,0-9,9V43a9,9,0,0,0,9,9H43a9,9,0,0,0,9-9V10a9,9,0,0,0-9-9Z" transform="translate(0 0)"/></g><path class="cls-4" d="M7.25,24V37l4.52,4.48L16.29,46H19.7l7-6.88,7-6.86V28.7c0-3-.06-3.62-.3-3.82s-.35-.22-.41-.18l-5.34,5.21-7.45,7.24-2.18,2.11L15.7,37l-2.34-2.31V16.73l-2.91-2.87C8.86,12.29,7.47,11,7.39,11S7.25,16.85,7.25,24Z" transform="translate(0 0)"/><path class="cls-4" d="M24.71,16.19l-5.24,5.19,0,4.06.06,4.07,5-4.89C27.27,21.94,30.37,19,31.43,18l1.91-1.81,3.3,3.26,3.3,3.26h5.81V20l-4.52-4.46L36.69,11H30Z" transform="translate(0 0)"/><path class="cls-4" d="M40.51,28.64l-.67.08v5.92l-5.7,5.63c-3.14,3.07-5.7,5.63-5.7,5.67s1.87.06,4.15.06h4.16l4.5-4.34,4.5-4.35V28.5l-2.28,0C42.21,28.54,40.86,28.6,40.51,28.64Z" transform="translate(0 0)"/><path class="cls-5" d="M72.46,26.63,68.28,37.79a2.35,2.35,0,0,1-2.16,1.8c-1.17,0-1.72-.7-2.08-1.8L58.39,21h3.93l4.06,12.19,4-10.82c.47-1.21,1-1.87,2.13-1.87s1.67.6,2.11,1.87l3.82,10.82L82.74,21h3.85l-5.9,16.8a2.15,2.15,0,0,1-4.24,0Z" transform="translate(0 0)"/><path class="cls-5" d="M91.33,31.88v.83c0,2.21.52,2.61,2.35,2.61h4.57v3.77H93.68c-4.48,0-6.22-2.07-6.22-6.88V28c0-5.27,1.43-7,6.4-7h6.81c4,0,5.16,2.07,5.16,4.94v5.95ZM102,26.33c0-1.2-.42-1.5-1.59-1.5H93.91c-2,0-2.58.27-2.58,2.87v1H102Z" transform="translate(0 0)"/><path class="cls-5" d="M115.33,39.09c-5.23,0-6.77-2.07-6.77-7.82V15.14h3.88V21h7.83c5.26,0,6.79,2.07,6.79,7.85v2.43c0,5.75-1.53,7.82-6.79,7.82ZM123.18,29c0-3.14-.6-3.74-3-3.74h-7.7v5.91c0,3,.57,3.71,3,3.71h4.68c2.44,0,3-.73,3-3.74Z" transform="translate(0 0)"/><path class="cls-5" d="M136.64,39.09c-5.23,0-6.76-2.07-6.76-7.82V28.84c0-5.78,1.53-7.85,6.76-7.85h10.2v4.27H136.77c-2.45,0-3,.77-3,3.74v2.14c0,2.87.6,3.74,3,3.74h10.09v4.21Z" transform="translate(0 0)"/><path class="cls-5" d="M151,20c-1,0-1.32-.47-1.32-1.54V16.48c0-1.07.36-1.51,1.32-1.51h1.28c1,0,1.35.44,1.35,1.51v1.93c0,1.07-.36,1.54-1.35,1.54Zm-1.32,19.14V21.45h3.95V39.09Z" transform="translate(0 0)"/><path class="cls-5" d="M171,39.09V29c0-3-.65-3.74-3.14-3.74h-4.22c-2.44,0-3.15.74-3.15,3.74V39.09h-3.87V28.84c0-5.78,1.53-7.85,6.76-7.85h4.71c5.26,0,6.79,2.07,6.79,7.85V39.09Z" transform="translate(0 0)"/><path class="cls-5" d="M184.52,39.09c-5.23,0-6.76-2.07-6.76-7.82V28.84c0-5.78,1.53-7.85,6.76-7.85h10.2v4.27H184.65c-2.44,0-3,.77-3,3.74v2.14c0,2.87.6,3.74,3,3.74h10.1v4.21Z" transform="translate(0 0)"/><path class="cls-5" d="M204.2,39.09c-5.23,0-6.77-2.07-6.77-7.82V28.84c0-5.78,1.54-7.85,6.77-7.85h4.7c5.26,0,6.79,2.07,6.79,7.88v2.4c0,5.75-1.53,7.82-6.79,7.82ZM211.82,29c0-3.07-.63-3.74-3.44-3.74h-3.66c-2.76,0-3.41.67-3.41,3.74v2.14c0,3,.65,3.74,3.41,3.74h3.66c2.81,0,3.44-.73,3.44-3.74Z" transform="translate(0 0)"/><path class="cls-5" d="M219.32,39.09c-1,0-1.33-.43-1.33-1.5V34.85c0-1,.36-1.5,1.33-1.5h1.27c1,0,1.35.46,1.35,1.5v2.74c0,1.07-.36,1.5-1.35,1.5Z" transform="translate(0 0)"/><path class="cls-5" d="M231,39.09c-5.29,0-6.82-2.07-6.82-7.82V28.84c0-5.78,1.53-7.85,6.82-7.85h7.83V15.14h3.87V31.27c0,5.75-1.53,7.82-6.79,7.82Zm-2.95-8c0,3.17.68,3.74,3.44,3.74h4.32c2.44,0,3-.7,3-3.71V25.26h-7.37c-2.73,0-3.41.5-3.41,3.74Z" transform="translate(0 0)"/><path class="cls-5" d="M249.48,31.88v.83c0,2.21.52,2.61,2.34,2.61h4.58v3.77h-4.58c-4.48,0-6.22-2.07-6.22-6.88V28c0-5.27,1.43-7,6.4-7h6.82c4,0,5.15,2.07,5.15,4.94v5.95Zm10.61-5.55c0-1.2-.42-1.5-1.59-1.5h-6.45c-2,0-2.57.27-2.57,2.87v1h10.61Z" transform="translate(0 0)"/><path class="cls-5" d="M279.09,37.89a2.83,2.83,0,0,1-2.66,1.7,2.78,2.78,0,0,1-2.68-1.7L264.47,21h4.63l7.39,13.86L283.8,21h4.58Z" transform="translate(0 0)"/></svg>